<?xml version="1.0" encoding="UTF-8" standalone="no"?>
<!-- Svg Vector Icons : http://www.onlinewebfonts.com/icon -->

<svg
   xmlns:dc="http://purl.org/dc/elements/1.1/"
   xmlns:cc="http://creativecommons.org/ns#"
   xmlns:rdf="http://www.w3.org/1999/02/22-rdf-syntax-ns#"
   xmlns:svg="http://www.w3.org/2000/svg"
   xmlns="http://www.w3.org/2000/svg"
   xmlns:sodipodi="http://sodipodi.sourceforge.net/DTD/sodipodi-0.dtd"
   xmlns:inkscape="http://www.inkscape.org/namespaces/inkscape"
   version="1.1"
   x="0px"
   y="0px"
   viewBox="0 0 979.16016 549.90002"
   enable-background="new 0 0 1000 1000"
   xml:space="preserve"
   id="svg47"
   sodipodi:docname="bike-icon.svg"
   width="979.16016"
   height="549.90002"
   inkscape:version="0.92.5 (2060ec1f9f, 2020-04-08)"><defs
   id="defs51"><clipPath
     clipPathUnits="userSpaceOnUse"
     id="clipPath55"><rect
       id="rect57"
       width="986.87354"
       height="681.38428"
       x="10.739857"
       y="145.58473" /></clipPath></defs><sodipodi:namedview
   pagecolor="#ffffff"
   bordercolor="#666666"
   borderopacity="1"
   objecttolerance="10"
   gridtolerance="10"
   guidetolerance="10"
   inkscape:pageopacity="0"
   inkscape:pageshadow="2"
   inkscape:window-width="1848"
   inkscape:window-height="1016"
   id="namedview49"
   showgrid="false"
   inkscape:zoom="0.838"
   inkscape:cx="489.26014"
   inkscape:cy="275"
   inkscape:window-x="72"
   inkscape:window-y="27"
   inkscape:window-maximized="1"
   inkscape:current-layer="svg47"
   fit-margin-top="0"
   fit-margin-left="0"
   fit-margin-right="0"
   fit-margin-bottom="0" />
<metadata
   id="metadata41"> Svg Vector Icons : http://www.onlinewebfonts.com/icon <rdf:RDF><cc:Work
     rdf:about=""><dc:format>image/svg+xml</dc:format><dc:type
       rdf:resource="http://purl.org/dc/dcmitype/StillImage" /><dc:title></dc:title></cc:Work></rdf:RDF></metadata>
<g
   id="g45"
   clip-path="url(#clipPath55)"
   transform="translate(-10.739857,-225.1)"><path
     d="m 292,292.2 c 22,-1.5 106.6,4.7 124.8,5 18.3,0.2 36,-2.6 35.1,9.7 -0.9,12.4 -26.6,14.7 -59.8,25.8 -4.3,1.3 -8.7,2.4 -13,3.2 l 4.2,12.8 270.8,-5.8 -23.2,-63.7 20.3,-18.5 -11.8,-11.8 h -71.8 v -23.8 h 86.7 l 35.4,32.8 -24.4,24.4 53.3,145.6 c 25.9,-13.8 55.5,-21.7 86.9,-21.7 101.7,0 184.4,82.5 184.4,184.3 0,101.8 -82.6,184.4 -184.4,184.4 -101.7,0 -184.4,-82.5 -184.4,-184.4 0,-58.9 27.7,-111.4 70.8,-145.1 -3,-8.1 -6.1,-16.5 -9.3,-25.5 L 492.3,625 c 0.3,1.9 0.5,3.8 0.5,5.7 0,13.6 -9.5,24.9 -22,27.9 l -13,51.8 h 8.3 v 16.7 h -44.4 v -16.7 h 13.4 l 15.3,-54.5 v 0 c -4.2,-2.3 -7.8,-5.6 -10.4,-9.7 L 373.2,635.3 C 353.3,715.5 280.7,775 194.3,775 92.5,774.9 10,692.3 10,590.5 10,488.8 92.6,406.2 194.4,406.2 c 36.5,0 70.6,10.7 99.3,29 l 60.6,-76.7 -7.4,-22.1 c -46,-5.9 -81.6,-37.7 -54.9,-44.2 z m 439,169.4 c 4.6,12.6 9.3,24.7 16.2,36.5 14.8,25.6 46.5,54.7 57,64 1.1,-0.1 2.1,-0.3 3.1,-0.3 11.7,0 21.1,9.5 21.1,21.1 0,11.7 -9.5,21.2 -21.1,21.2 -11.6,0 -21.2,-9.5 -21.2,-21.2 0,-1.1 0.1,-2.3 0.4,-3.4 -3.2,-2.5 -7,-5.6 -11.5,-9.3 -36.7,-30.4 -54.5,-57.1 -69.2,-90.2 -30.1,27.3 -49.1,66.7 -49.1,110.5 0,82.2 66.7,148.9 148.9,148.9 82.2,0 148.9,-66.7 148.9,-148.9 0,-82.2 -66.7,-148.9 -148.9,-148.9 -27.2,0 -52.7,7.3 -74.6,20 z M 338.2,629.4 203.7,607.5 c -2.8,1.7 -6,2.5 -9.5,2.5 -10.8,0 -19.5,-8.8 -19.5,-19.5 0,-7.2 4,-13.5 9.8,-16.9 h -0.1 l 87.2,-110.4 c -22.5,-13.7 -49,-21.6 -77.3,-21.6 -82.2,0 -148.9,66.7 -148.9,148.9 0,82.2 66.7,148.9 148.9,148.9 68.8,0 126.8,-46.6 143.9,-110 z m -20,-175.5 c 37.2,33.8 60.6,82.5 60.6,136.6 0,4.8 -0.2,9.6 -0.5,14.4 l 62.1,10.1 h 0.1 L 366.1,393.5 Z M 296.1,481.8 219.3,579 343,599.1 c 0.1,-2.8 0.3,-5.6 0.3,-8.5 0,-42.9 -18.1,-81.6 -47.2,-108.8 z m 170.2,114.1 5.2,-35.3 h -11.2 v -15.8 h 42.1 v 15.8 h -12.8 l -5,27.5 v 0 L 671,387.7 l -5.6,-14.2 -271.8,5.8 z"
     id="path43"
     inkscape:connector-curvature="0" /></g>
</svg>